<?xml version="1.0" encoding="UTF-8"?>
<svg id="Lag_1" xmlns="http://www.w3.org/2000/svg" version="1.1" viewBox="0 0 512 512">
  <!-- Generator: Adobe Illustrator 30.2.1, SVG Export Plug-In . SVG Version: 2.1.1 Build 1)  -->
  <defs>
    <style>
      .st0 {
        fill: #f2dea2;
      }
    </style>
  </defs>
  <path class="st0" d="M374,37q1,.54,2.02,1.1c27.82,15.26,53.55,36.78,72.98,61.9.76.93,1.52,1.87,2.31,2.83,7.84,9.79,14.32,20.39,20.69,31.17.39.66.79,1.32,1.2,2.01,12.71,21.59,20.56,46.25,25.55,70.68.2.97.4,1.95.6,2.95,2.97,15.32,4.03,30.36,3.96,45.93q0,1.31,0,2.65c-.05,14.11-.73,27.89-3.31,41.79-.17.94-.34,1.88-.52,2.85-7.76,41.21-24.38,79.93-51.48,112.15-.41.5-.83,1-1.25,1.52-11.31,13.74-23.62,26.62-37.75,37.48q-1.47,1.18-2.96,2.38c-26.43,21.05-68.03,47.62-103.04,47.62v-179h48q1.08-7.42,2.19-15c1.7-11.62,3.44-23.23,5.24-34.83.22-1.4.43-2.8.65-4.21.3-1.96.61-3.91.91-5.87.17-1.11.34-2.22.52-3.36q.49-2.74,1.49-5.74h-73c-.1-9.32-.21-18.65-.31-28.25q-.07-4.38-.14-8.84c-.01-2.35-.03-4.7-.04-7.05-.03-1.19-.05-2.38-.08-3.61,0-10.87,2.9-20.57,10.55-28.57,9.57-7.99,20.66-8.99,32.61-8.88,1.05,0,2.11,0,3.19,0,3.9.01,7.81.04,11.71.06,8.75.04,17.49.08,26.5.12v-61q-6.93-.5-14-1-4.37-.54-6.36-.8c-10.23-1.29-20.49-1.44-30.8-1.5-1.7,0-3.41-.02-5.11-.04-27.71-.28-52.51,6.97-72.92,26.43-18.13,19.05-23.22,45.31-23.32,70.67-.02,1.52-.04,3.05-.05,4.57-.05,3.94-.08,7.89-.1,11.83-.04,4.77-.09,9.53-.15,14.3-.08,7.18-.13,14.37-.19,21.55h-56v69h56v179c-9.22-1.32-17.74-2.72-26.62-5.19-1.12-.31-2.24-.62-3.4-.93-36.93-10.34-70.29-27.26-98.98-52.88-.54-.47-1.07-.95-1.62-1.44C40.44,400.1,12.15,339.15,7.18,274.12c-3.74-64.44,15.5-130.11,58.42-179.09,1.69-1.86,3.4-3.71,5.11-5.55,1.91-2.07,3.73-4.18,5.54-6.35,18.51-21.14,43.05-37.17,67.75-50.12.67-.35,1.33-.71,2.02-1.07C216.04-4.65,305.48-.21,374,37Z"/>
</svg>