<?xml version="1.0" encoding="UTF-8"?>
<svg id="Lag_1" xmlns="http://www.w3.org/2000/svg" version="1.1" viewBox="0 0 512 512">
  <!-- Generator: Adobe Illustrator 30.2.1, SVG Export Plug-In . SVG Version: 2.1.1 Build 1)  -->
  <defs>
    <style>
      .st0 {
        fill: #f2dea2;
      }
    </style>
  </defs>
  <path class="st0" d="M255.62-.31c1.02,0,2.04,0,3.08,0,14.61.05,28.94.3,43.29,3.31.97.2,1.95.4,2.95.6,59.57,12.46,115.92,44.35,153.05,93.4.42.54.83,1.08,1.26,1.63,24.5,31.87,40.99,68.42,49.05,107.8.15.72.29,1.44.45,2.18,2.97,15.65,3.61,31.12,3.55,47.01,0,1.02,0,2.04,0,3.08-.05,14.61-.3,28.94-3.31,43.29q-.3,1.46-.6,2.95c-10.25,49.01-32.59,93.01-67.4,129.05-.6.62-1.2,1.24-1.81,1.88-7.66,7.9-15.41,15.45-24.19,22.12-.54.42-1.08.83-1.64,1.26-31.87,24.5-68.42,40.99-107.8,49.05-.72.15-1.44.29-2.18.45-14.68,2.79-29.2,3.59-44.11,3.56-2.94,0-5.88.02-8.82.05-13.37.04-26.27-1.16-39.46-3.36q-1.71-.28-3.45-.57c-2.6-.47-5.17-.98-7.74-1.55q-1.39-.31-2.81-.62c-45.09-10.49-85.78-33.22-119.01-65.25q-.96-.92-1.95-1.86c-9.18-8.83-17.53-17.87-25.05-28.14q-.64-.85-1.29-1.73c-6.52-8.74-12.35-17.79-17.71-27.27-.4-.71-.8-1.41-1.22-2.14-13.03-23.14-21.77-48.31-27.09-74.29-.15-.72-.29-1.44-.45-2.18-2.97-15.65-3.61-31.12-3.55-47.01,0-1.02,0-2.04,0-3.08.05-14.61.3-28.94,3.31-43.29.2-.97.4-1.95.6-2.95,10.12-48.38,32.04-92.37,66.4-128.05.63-.66,1.26-1.32,1.92-2,9.14-9.49,18.44-18.23,29.08-26,1.15-.86,2.3-1.72,3.45-2.57,8.19-6.04,16.69-11.42,25.55-16.43.71-.4,1.41-.8,2.14-1.22,23.14-13.03,48.31-21.77,74.29-27.09.72-.15,1.44-.29,2.18-.45,15.65-2.97,31.12-3.61,47.01-3.55ZM263,110c-.01,6.28-.03,12.56-.04,19.03-.05,20.74-.12,41.47-.19,62.21-.04,12.57-.08,25.15-.11,37.72-.02,10.96-.06,21.92-.1,32.88-.02,5.8-.04,11.6-.05,17.41,0,5.46-.03,10.93-.06,16.39,0,2-.01,4-.01,6.01q.01,22.71-6.5,32.74-2.13,3.29-3.87,6.79c-1.36,2.34-2.61,2.76-5.07,3.84-1.38.97-2.76,1.95-4.12,2.94-10.09,6.67-21.07,7.26-32.88,6.06-10.97-2.31-20.6-8.82-27-18-6.37-10.66-8.2-22.66-5.89-34.82,3.44-12.21,9.88-21,20.89-27.18,7.17-3.36,13.48-5.14,21.44-5.12,1.09,0,2.18,0,3.31,0,3.17.13,6.14.58,9.25,1.13.03-6.68.04-13.35.05-20.03,0-2.27.01-4.55.02-6.82.01-3.26.02-6.52.02-9.78,0-1.02.01-2.05.02-3.1q0-1.41,0-2.85c0-.83,0-1.67,0-2.52q.09-1.91-1.12-2.9c-25.4-2.2-50.15,3.41-70,20-18.51,16.11-30.02,36.38-33,61-1.35,25.51,5.84,48.9,22.67,68.48,16.65,17.99,38.71,29.03,63.33,30.52q1.04.08,2.11.16c24.07.95,47-8.45,64.89-24.16.75-.65,1.5-1.31,2.27-1.98,15.15-14.14,26.07-35.68,26.82-56.52.03-3.01.03-6.02.02-9.03q0-1.71,0-3.46c0-3.76,0-7.52-.02-11.28,0-2.61,0-5.23,0-7.84,0-6.17-.01-12.33-.02-18.5-.01-7.02-.02-14.05-.02-21.07-.01-14.44-.03-28.88-.05-43.32,1,.68,1.99,1.36,3.02,2.05,1.34.9,2.68,1.81,4.02,2.71.65.45,1.31.89,1.98,1.35,13.84,9.3,29.48,14.68,45.8,17.7q.98.19,1.99.38c5.91.99,10.98.81,17.2.81v-47c-5.61-.66-11.22-1.32-17-2-19.53-5.41-35.9-15.84-46.2-33.7-6.52-11.97-9.3-23.74-10.8-37.3h-47Z"/>
</svg>